<svg id="Ebene_1" data-name="Ebene 1" xmlns="http://www.w3.org/2000/svg" viewBox="0 0 147.402 85.04">
  <title>89eca91b-2260-4b44-b351-71600af53739</title>
  <g>
    <polygon points="138.898 76.536 127.559 76.536 127.559 85.04 138.898 85.04 147.402 85.04 147.402 76.536 147.402 65.197 138.898 65.197 138.898 76.536"/>
    <polygon points="8.504 0 0 0 0 19.843 8.504 19.843 8.504 8.504 19.843 8.504 19.843 0 8.504 0 8.504 0"/>
    <polygon points="147.402 0 147.402 0 138.898 0 138.898 0 127.559 0 127.559 8.504 138.898 8.504 138.898 19.843 147.402 19.843 147.402 8.504 147.402 8.504 147.402 0 147.402 0"/>
    <polygon points="8.504 65.197 0 65.197 0 76.536 0 85.04 8.504 85.04 19.843 85.04 19.843 76.536 8.504 76.536 8.504 65.197"/>
    <rect x="138.898" y="28.347" width="8.504" height="28.346"/>
    <path d="M87.874,0H31.181V85.04h85.039V0H87.874Zm19.843,76.535H39.685V8.5h68.031Z"/>
    <rect y="28.347" width="8.504" height="28.346"/>
  </g>
</svg>
